<svg width="646" height="161" viewBox="0 0 646 161" fill="none" xmlns="http://www.w3.org/2000/svg">
<rect width="646" height="161" fill="#121212"/>
<path d="M134.266 100.248C134.266 103.256 133.21 105.816 131.098 107.928C129.05 109.976 126.554 111 123.61 111H110.266C107.322 111 104.794 109.976 102.682 107.928C100.57 105.816 99.5138 103.256 99.5138 100.248V96.312C99.5138 95.096 99.9298 94.072 100.762 93.24C101.658 92.344 102.714 91.896 103.93 91.896H106.618C107.834 91.896 108.858 92.344 109.69 93.24C110.522 94.072 110.938 95.096 110.938 96.312V98.424C110.938 99.256 111.386 99.672 112.282 99.672H121.594C121.914 99.672 122.202 99.544 122.458 99.288C122.778 99.032 122.938 98.744 122.938 98.424V94.872C122.938 94.36 122.682 94.008 122.17 93.816L108.25 89.4C105.69 88.504 103.578 86.968 101.914 84.792C100.314 82.616 99.5138 80.152 99.5138 77.4V72.024C99.5138 70.04 99.9938 68.248 100.954 66.648C101.978 65.048 103.29 63.768 104.89 62.808C106.49 61.784 108.282 61.272 110.266 61.272H123.61C125.594 61.272 127.386 61.784 128.986 62.808C130.586 63.768 131.866 65.048 132.826 66.648C133.786 68.248 134.266 70.04 134.266 72.024V75.864C134.266 77.08 133.85 78.136 133.018 79.032C132.186 79.864 131.162 80.28 129.946 80.28H127.258C126.042 80.28 125.018 79.864 124.186 79.032C123.354 78.136 122.938 77.08 122.938 75.864V74.04C122.938 73.656 122.778 73.336 122.458 73.08C122.202 72.824 121.914 72.696 121.594 72.696H112.282C111.386 72.696 110.938 73.144 110.938 74.04V77.4C110.938 78.04 111.194 78.424 111.706 78.552L125.626 82.968C128.25 83.8 130.33 85.304 131.866 87.48C133.466 89.656 134.266 92.12 134.266 94.872V100.248ZM165.308 106.584C165.308 107.8 164.86 108.856 163.964 109.752C163.132 110.584 162.108 111 160.892 111H158.492C155.548 111 153.02 109.976 150.908 107.928C148.796 105.816 147.74 103.256 147.74 100.248V50.52C147.74 49.24 148.156 48.184 148.988 47.352C149.884 46.52 150.94 46.104 152.156 46.104H154.844C156.06 46.104 157.084 46.52 157.916 47.352C158.812 48.184 159.26 49.24 159.26 50.52V98.424C159.26 99.256 159.644 99.672 160.412 99.672H160.892C162.108 99.672 163.132 100.088 163.964 100.92C164.86 101.752 165.308 102.808 165.308 104.088V106.584ZM213.38 82.488C213.38 84.408 212.9 86.2 211.94 87.864C210.98 89.464 209.7 90.776 208.1 91.8C206.5 92.76 204.708 93.24 202.724 93.24H191.396C191.076 93.24 190.756 93.368 190.436 93.624C190.18 93.816 190.052 94.072 190.052 94.392V98.424C190.052 98.744 190.18 99.032 190.436 99.288C190.756 99.544 191.076 99.672 191.396 99.672H202.724C203.94 99.672 204.964 100.088 205.796 100.92C206.692 101.752 207.14 102.808 207.14 104.088V106.584C207.14 107.8 206.692 108.856 205.796 109.752C204.964 110.584 203.94 111 202.724 111H189.38C186.436 111 183.908 109.976 181.796 107.928C179.684 105.816 178.628 103.256 178.628 100.248V72.024C178.628 70.04 179.108 68.248 180.068 66.648C181.092 65.048 182.404 63.768 184.004 62.808C185.604 61.784 187.396 61.272 189.38 61.272H202.724C204.708 61.272 206.5 61.784 208.1 62.808C209.7 63.768 210.98 65.048 211.94 66.648C212.9 68.248 213.38 70.04 213.38 72.024V82.488ZM202.052 80.568V74.04C202.052 73.656 201.892 73.336 201.572 73.08C201.316 72.824 201.028 72.696 200.708 72.696H191.396C191.076 72.696 190.756 72.824 190.436 73.08C190.18 73.336 190.052 73.656 190.052 74.04V80.568C190.052 80.824 190.18 81.08 190.436 81.336C190.756 81.592 191.076 81.72 191.396 81.72H200.708C201.028 81.72 201.316 81.592 201.572 81.336C201.892 81.08 202.052 80.824 202.052 80.568ZM261.702 82.488C261.702 84.408 261.222 86.2 260.262 87.864C259.302 89.464 258.022 90.776 256.422 91.8C254.822 92.76 253.03 93.24 251.046 93.24H239.718C239.398 93.24 239.078 93.368 238.758 93.624C238.502 93.816 238.374 94.072 238.374 94.392V98.424C238.374 98.744 238.502 99.032 238.758 99.288C239.078 99.544 239.398 99.672 239.718 99.672H251.046C252.262 99.672 253.286 100.088 254.118 100.92C255.014 101.752 255.462 102.808 255.462 104.088V106.584C255.462 107.8 255.014 108.856 254.118 109.752C253.286 110.584 252.262 111 251.046 111H237.702C234.758 111 232.23 109.976 230.118 107.928C228.006 105.816 226.95 103.256 226.95 100.248V72.024C226.95 70.04 227.43 68.248 228.39 66.648C229.414 65.048 230.726 63.768 232.326 62.808C233.926 61.784 235.718 61.272 237.702 61.272H251.046C253.03 61.272 254.822 61.784 256.422 62.808C258.022 63.768 259.302 65.048 260.262 66.648C261.222 68.248 261.702 70.04 261.702 72.024V82.488ZM250.374 80.568V74.04C250.374 73.656 250.214 73.336 249.894 73.08C249.638 72.824 249.35 72.696 249.03 72.696H239.718C239.398 72.696 239.078 72.824 238.758 73.08C238.502 73.336 238.374 73.656 238.374 74.04V80.568C238.374 80.824 238.502 81.08 238.758 81.336C239.078 81.592 239.398 81.72 239.718 81.72H249.03C249.35 81.72 249.638 81.592 249.894 81.336C250.214 81.08 250.374 80.824 250.374 80.568ZM309.641 108.312C308.937 110.104 307.625 111 305.705 111H302.153C300.873 111 299.753 110.52 298.793 109.56L287.561 97.176C287.497 97.048 287.337 97.016 287.081 97.08C286.889 97.144 286.793 97.304 286.793 97.56V106.584C286.793 107.8 286.345 108.856 285.449 109.752C284.617 110.584 283.593 111 282.377 111H279.689C278.473 111 277.417 110.584 276.521 109.752C275.689 108.856 275.273 107.8 275.273 106.584V50.52C275.273 49.24 275.689 48.184 276.521 47.352C277.417 46.52 278.473 46.104 279.689 46.104H282.377C283.593 46.104 284.617 46.52 285.449 47.352C286.345 48.184 286.793 49.24 286.793 50.52V74.808C286.793 75 286.889 75.16 287.081 75.288C287.337 75.352 287.497 75.288 287.561 75.096L297.737 64.056C298.569 63.096 299.625 62.616 300.905 62.616H304.457C306.313 62.616 307.657 63.512 308.489 65.304C308.809 66.072 308.905 66.904 308.777 67.8C308.649 68.632 308.297 69.336 307.721 69.912L293.801 85.272C293.545 85.528 293.417 85.848 293.417 86.232C293.417 86.552 293.545 86.808 293.801 87L308.873 103.608C309.449 104.248 309.801 105.016 309.929 105.912C310.121 106.744 310.025 107.544 309.641 108.312ZM358.347 121.944C358.347 123.16 357.931 124.184 357.099 125.016C356.267 125.912 355.243 126.36 354.027 126.36H351.339C350.123 126.36 349.099 125.912 348.267 125.016C347.435 124.184 347.019 123.16 347.019 121.944V112.248C347.019 111.416 346.571 111 345.675 111H334.347C331.403 111 328.875 109.976 326.763 107.928C324.651 105.816 323.595 103.256 323.595 100.248V72.024C323.595 70.04 324.075 68.248 325.035 66.648C326.059 64.984 327.371 63.672 328.971 62.712C330.571 61.752 332.363 61.272 334.347 61.272H347.691C349.675 61.272 351.467 61.752 353.067 62.712C354.667 63.672 355.947 64.984 356.907 66.648C357.867 68.248 358.347 70.04 358.347 72.024V121.944ZM347.019 98.424V74.04C347.019 73.144 346.571 72.696 345.675 72.696H336.363C335.467 72.696 335.019 73.144 335.019 74.04V98.424C335.019 99.256 335.467 99.672 336.363 99.672H345.675C346.571 99.672 347.019 99.256 347.019 98.424ZM406.67 100.248C406.67 103.256 405.614 105.816 403.502 107.928C401.454 109.976 398.958 111 396.014 111H382.67C379.726 111 377.198 109.976 375.086 107.928C372.974 105.816 371.918 103.256 371.918 100.248V65.784C371.918 64.504 372.334 63.448 373.166 62.616C374.062 61.72 375.118 61.272 376.334 61.272H379.022C380.238 61.272 381.262 61.72 382.094 62.616C382.926 63.448 383.342 64.504 383.342 65.784V98.424C383.342 98.744 383.47 99.032 383.726 99.288C384.046 99.544 384.366 99.672 384.686 99.672H393.998C394.318 99.672 394.606 99.544 394.862 99.288C395.182 99.032 395.342 98.744 395.342 98.424V65.784C395.342 64.504 395.758 63.448 396.59 62.616C397.422 61.72 398.446 61.272 399.662 61.272H402.35C403.566 61.272 404.59 61.72 405.422 62.616C406.254 63.448 406.67 64.504 406.67 65.784V100.248ZM454.992 82.488C454.992 84.408 454.512 86.2 453.552 87.864C452.592 89.464 451.312 90.776 449.712 91.8C448.112 92.76 446.32 93.24 444.336 93.24H433.008C432.688 93.24 432.368 93.368 432.048 93.624C431.792 93.816 431.664 94.072 431.664 94.392V98.424C431.664 98.744 431.792 99.032 432.048 99.288C432.368 99.544 432.688 99.672 433.008 99.672H444.336C445.552 99.672 446.576 100.088 447.408 100.92C448.304 101.752 448.752 102.808 448.752 104.088V106.584C448.752 107.8 448.304 108.856 447.408 109.752C446.576 110.584 445.552 111 444.336 111H430.992C428.048 111 425.52 109.976 423.408 107.928C421.296 105.816 420.24 103.256 420.24 100.248V72.024C420.24 70.04 420.72 68.248 421.68 66.648C422.704 65.048 424.016 63.768 425.616 62.808C427.216 61.784 429.008 61.272 430.992 61.272H444.336C446.32 61.272 448.112 61.784 449.712 62.808C451.312 63.768 452.592 65.048 453.552 66.648C454.512 68.248 454.992 70.04 454.992 72.024V82.488ZM443.664 80.568V74.04C443.664 73.656 443.504 73.336 443.184 73.08C442.928 72.824 442.64 72.696 442.32 72.696H433.008C432.688 72.696 432.368 72.824 432.048 73.08C431.792 73.336 431.664 73.656 431.664 74.04V80.568C431.664 80.824 431.792 81.08 432.048 81.336C432.368 81.592 432.688 81.72 433.008 81.72H442.32C442.64 81.72 442.928 81.592 443.184 81.336C443.504 81.08 443.664 80.824 443.664 80.568ZM503.315 100.248C503.315 103.256 502.259 105.816 500.147 107.928C498.099 109.976 495.603 111 492.659 111H479.315C476.371 111 473.843 109.976 471.731 107.928C469.619 105.816 468.563 103.256 468.563 100.248V96.312C468.563 95.096 468.979 94.072 469.811 93.24C470.707 92.344 471.763 91.896 472.979 91.896H475.667C476.883 91.896 477.907 92.344 478.739 93.24C479.571 94.072 479.987 95.096 479.987 96.312V98.424C479.987 99.256 480.435 99.672 481.331 99.672H490.643C490.963 99.672 491.251 99.544 491.507 99.288C491.827 99.032 491.987 98.744 491.987 98.424V94.872C491.987 94.36 491.731 94.008 491.219 93.816L477.299 89.4C474.739 88.504 472.627 86.968 470.963 84.792C469.363 82.616 468.563 80.152 468.563 77.4V72.024C468.563 70.04 469.043 68.248 470.003 66.648C471.027 65.048 472.339 63.768 473.939 62.808C475.539 61.784 477.331 61.272 479.315 61.272H492.659C494.643 61.272 496.435 61.784 498.035 62.808C499.635 63.768 500.915 65.048 501.875 66.648C502.835 68.248 503.315 70.04 503.315 72.024V75.864C503.315 77.08 502.899 78.136 502.067 79.032C501.235 79.864 500.211 80.28 498.995 80.28H496.307C495.091 80.28 494.067 79.864 493.235 79.032C492.403 78.136 491.987 77.08 491.987 75.864V74.04C491.987 73.656 491.827 73.336 491.507 73.08C491.251 72.824 490.963 72.696 490.643 72.696H481.331C480.435 72.696 479.987 73.144 479.987 74.04V77.4C479.987 78.04 480.243 78.424 480.755 78.552L494.675 82.968C497.299 83.8 499.379 85.304 500.915 87.48C502.515 89.656 503.315 92.12 503.315 94.872V100.248ZM545.397 106.584C545.397 107.8 544.981 108.856 544.149 109.752C543.317 110.584 542.293 111 541.077 111H527.637C524.693 111 522.165 109.976 520.053 107.928C518.005 105.816 516.981 103.256 516.981 100.248V50.52C516.981 49.24 517.397 48.184 518.229 47.352C519.061 46.52 520.085 46.104 521.301 46.104H523.989C525.205 46.104 526.229 46.52 527.061 47.352C527.957 48.184 528.405 49.24 528.405 50.52V60.12C528.405 60.888 528.821 61.272 529.653 61.272H541.077C542.293 61.272 543.317 61.72 544.149 62.616C544.981 63.448 545.397 64.504 545.397 65.784V68.376C545.397 69.464 544.981 70.488 544.149 71.448C543.189 72.28 542.165 72.696 541.077 72.696H529.653C528.821 72.696 528.405 73.144 528.405 74.04V98.424C528.405 99.256 528.821 99.672 529.653 99.672H541.077C542.293 99.672 543.317 100.088 544.149 100.92C544.981 101.752 545.397 102.808 545.397 104.088V106.584Z" fill="white"/>
</svg>
