<svg width="1080" height="1080" viewBox="0 0 1080 1080" fill="none" xmlns="http://www.w3.org/2000/svg">
<rect width="1080" height="1080" fill="#070707"/>
<path d="M506.153 487.2C506.153 496.8 503.753 505.6 498.953 513.6C494.153 521.6 487.753 528 479.753 532.8C471.753 537.6 462.953 540 453.353 540H376.553C366.953 540 358.02 537.6 349.753 532.8C341.753 528 335.353 521.6 330.553 513.6C325.753 505.6 323.353 496.8 323.353 487.2V475.2C323.353 470.133 325.086 465.867 328.553 462.4C332.286 458.667 336.686 456.8 341.753 456.8H352.953C357.753 456.8 361.886 458.667 365.353 462.4C369.086 465.867 370.953 470.133 370.953 475.2V487.2C370.953 488.533 371.486 489.867 372.553 491.2C373.886 492.267 375.22 492.8 376.553 492.8H453.353C454.686 492.8 455.886 492.267 456.953 491.2C458.02 489.867 458.553 488.533 458.553 487.2V450.8C458.553 447.867 457.22 446 454.553 445.2L358.553 409.2C347.886 405.467 339.353 398.933 332.953 389.6C326.553 380.267 323.353 370 323.353 358.8V322.8C323.353 312.933 325.753 304 330.553 296C335.353 288 341.753 281.6 349.753 276.8C358.02 272 366.953 269.6 376.553 269.6H453.353C462.953 269.6 471.753 272 479.753 276.8C487.753 281.6 494.153 288 498.953 296C503.753 304 506.153 312.933 506.153 322.8V333.6C506.153 338.667 504.286 342.933 500.553 346.4C497.086 349.867 492.82 351.6 487.753 351.6H476.953C471.886 351.6 467.486 349.867 463.753 346.4C460.286 342.933 458.553 338.667 458.553 333.6V322.8C458.553 319.067 456.82 317.2 453.353 317.2H376.553C375.22 317.2 373.886 317.733 372.553 318.8C371.486 319.867 370.953 321.2 370.953 322.8V358.8C370.953 362 372.286 364 374.953 364.8L471.353 400.8C481.753 404.533 490.153 411.067 496.553 420.4C502.953 429.733 506.153 439.867 506.153 450.8V487.2ZM776.178 521.6C776.178 526.667 774.311 531.067 770.578 534.8C767.111 538.267 762.978 540 758.178 540H620.578C615.778 540 611.511 538.267 607.778 534.8C604.311 531.067 602.578 526.667 602.578 521.6V288C602.578 282.667 604.311 278.267 607.778 274.8C611.511 271.333 615.778 269.6 620.578 269.6H631.778C636.845 269.6 641.111 271.333 644.578 274.8C648.311 278.267 650.178 282.667 650.178 288V487.6C650.178 491.067 651.778 492.8 654.978 492.8H758.178C762.978 492.8 767.111 494.533 770.578 498C774.311 501.467 776.178 505.867 776.178 511.2V521.6ZM503.614 826.6C503.614 831.667 501.747 836.067 498.014 839.8C494.547 843.267 490.281 845 485.214 845H374.014C364.414 845 355.481 842.6 347.214 837.8C339.214 833 332.814 826.6 328.014 818.6C323.214 810.6 320.814 801.8 320.814 792.2V627.8C320.814 617.933 323.214 609 328.014 601C332.814 593 339.214 586.6 347.214 581.8C355.481 577 364.414 574.6 374.014 574.6H450.814C460.414 574.6 469.214 577 477.214 581.8C485.214 586.6 491.614 593 496.414 601C501.214 609 503.614 617.933 503.614 627.8V826.6ZM456.014 759.8V627.8C456.014 624.067 454.281 622.2 450.814 622.2H374.014C372.681 622.2 371.347 622.733 370.014 623.8C368.947 624.867 368.414 626.2 368.414 627.8V792.2C368.414 793.533 368.947 794.867 370.014 796.2C371.347 797.267 372.681 797.8 374.014 797.8H417.614C418.414 797.8 418.947 797.4 419.214 796.6C419.747 795.533 419.614 794.6 418.814 793.8L399.214 774.2C395.747 770.733 394.014 766.467 394.014 761.4V746.2C394.014 742.2 395.081 738.733 397.214 735.8C399.347 732.6 402.147 730.333 405.614 729C409.081 727.667 412.547 727.4 416.014 728.2C419.747 728.733 422.814 730.467 425.214 733.4L452.414 761.4C453.214 761.933 454.014 762.067 454.814 761.8C455.614 761.533 456.014 760.867 456.014 759.8ZM778.439 603.8C778.439 608.867 776.706 613.267 773.239 617C769.772 620.467 765.372 622.2 760.039 622.2H718.039C714.572 622.2 712.839 623.933 712.839 627.4V826.6C712.839 831.667 710.972 836.067 707.239 839.8C703.772 843.267 699.506 845 694.439 845H684.039C678.972 845 674.572 843.267 670.839 839.8C667.372 836.067 665.639 831.667 665.639 826.6V627.4C665.639 623.933 663.906 622.2 660.439 622.2H618.039C612.972 622.2 608.572 620.467 604.839 617C601.372 613.267 599.639 608.867 599.639 603.8V593C599.639 587.667 601.372 583.267 604.839 579.8C608.572 576.333 612.972 574.6 618.039 574.6H760.039C765.372 574.6 769.772 576.333 773.239 579.8C776.706 583.267 778.439 587.667 778.439 593V603.8Z" fill="white"/>
</svg>
